# xmcd
#
# Track frame offsets:
#	150
#	15472
#	34380
#	54525
#	71047
#	88132
#	103995
#	124172
#	148567
#	170335
#	185050
#
# Disc length: 2824 seconds
#
# Revision: 1
# Processed by: cddbd v1.4PL0 Copyright (c) Steve Scherf et al.
# Submitted via: audiograbber 1.81.02
#
DISCID=a10b060b
DTITLE=Ruppes - Seasons
DYEAR=1997
DGENRE=Southern Gospel
TTITLE0=Endless Season
TTITLE1=When Jesus Speaks Peace
TTITLE2=Angels In the Room
TTITLE3=Come Sweet Annointing
TTITLE4=My Eyes Have Seen His Glory
TTITLE5=Bless the Lord/Holy, Holy
TTITLE6=Rest In Me
TTITLE7=My Comfort
TTITLE8=Redemption Complete
TTITLE9=Light From Heaven
TTITLE10=We Shall Behold Him
EXTD=
EXTT0=
EXTT1=
EXTT2=
EXTT3=
EXTT4=
EXTT5=
EXTT6=
EXTT7=
EXTT8=
EXTT9=
EXTT10=
PLAYORDER=
